<?xml version="1.0" encoding="iso-8859-1"?>
<!-- Generator: Adobe Illustrator 19.0.0, SVG Export Plug-In . SVG Version: 6.00 Build 0)  -->
<svg version="1.1" id="Layer_1" xmlns="http://www.w3.org/2000/svg" xmlns:xlink="http://www.w3.org/1999/xlink" x="0px" y="0px"
	 viewBox="0 0 372.337 372.337" style="enable-background:new 0 0 372.337 372.337;" xml:space="preserve">
<g>
	<g>
		<g>
			<path d="M183.44,166.385c-12.35,3.73-25.21,5.621-38.265,5.621c-47.038,0-90.908-25.325-114.493-66.093
				c-1.158-2.001-3.313-3.245-5.626-3.245c-2.313,0-4.469,1.244-5.626,3.246C6.721,127.884,0.002,152.982,0,178.492
				c-0.008,79.463,64.622,144.593,144.069,145.186l1.118,0.004c38.567-0.001,74.883-14.965,102.258-42.136
				c26.698-26.5,41.822-61.499,42.851-98.944c-13.196,8.833-28.445,13.468-44.502,13.468
				C221.414,196.07,198.827,185.282,183.44,166.385z"/>
			<path d="M362.336,90.582H318.55c2.71,7.853,4.202,16.269,4.202,25.031c0,14.197-3.88,27.498-10.611,38.927h24.883
				c19.471,0,35.313-15.841,35.313-35.313v-18.645C372.336,95.06,367.859,90.582,362.336,90.582z"/>
			<path d="M245.793,48.654c-36.98,0-66.958,29.978-66.958,66.958c0.001,36.98,29.979,66.958,66.958,66.958
				c36.98,0,66.958-29.978,66.958-66.958S282.773,48.654,245.793,48.654z M250.418,122.159c-7.174,0-12.99-5.816-12.99-12.99
				c0-7.174,5.816-12.99,12.99-12.99s12.99,5.816,12.99,12.99C263.408,116.342,257.592,122.159,250.418,122.159z"/>
		</g>
	</g>
</g>
<g>
</g>
<g>
</g>
<g>
</g>
<g>
</g>
<g>
</g>
<g>
</g>
<g>
</g>
<g>
</g>
<g>
</g>
<g>
</g>
<g>
</g>
<g>
</g>
<g>
</g>
<g>
</g>
<g>
</g>
</svg>
